<svg xmlns="http://www.w3.org/2000/svg" version="1.1" xmlns:xlink="http://www.w3.org/1999/xlink" xmlns:svgjs="http://svgjs.dev/svgjs" viewBox="0 0 800 400"><path d="M39.0134276713959 280.7174781299617C59.20774650633649 233.69355988909663 83.61880530099388 109.71896988004309 101.79369347950137 134.52913126716874C119.96858165800887 159.33929265429438 66.6666406510305 329.5754671614355 95.51567071338809 357.84751353035233C124.36470077574569 386.1195598992692 139.84004141549585 239.1539421599096 191.47979730030215 222.4215033985164C243.11955318510843 205.68906463712318 200.95212858895775 348.52612936744947 256.05377190967715 305.82956919441483C311.15541523039656 263.13300902138013 327.0074501933686 103.24512634366613 362.7802428569428 89.68608317146561C398.55303552051697 76.1270399992651 325.43343921721294 237.42449011574053 367.2645263042084 263.67710337410233C409.09561339120387 289.92971663246414 450.128505643808 156.0104404712703 492.8250731792084 171.30042490730546C535.5216407146088 186.5904093433406 453.5530324178966 308.90280878792066 499.9999694194428 311.2107337451961C546.446906420989 313.5186587024715 573.174849587086 181.64871673673252 637.2196959819428 178.47532114753983C701.2645423767996 175.30192555834714 664.1958066183361 327.88636278877516 699.1031188335053 301.3452552295711C734.0104310486745 274.804147670367 730.738359718922 162.02837562650305 745.7398375835053 95.96410593757889 " fill="none" stroke-width="45" stroke="url(&quot;#SvgjsLinearGradient1000&quot;)" stroke-linecap="round" transform="matrix(0.9025,0,-0.3182702001787793,0.9025000000000001,117.54294161005282,-3.210077533721943)"></path><defs><linearGradient id="SvgjsLinearGradient1000" gradientTransform="rotate(0, 0.5, 0.5)"><stop stop-color="hsl(37, 99%, 67%)" offset="0"></stop><stop stop-color="hsl(316, 73%, 52%)" offset="1"></stop></linearGradient></defs></svg>