<svg xmlns="http://www.w3.org/2000/svg" version="1.1" xmlns:xlink="http://www.w3.org/1999/xlink" xmlns:svgjs="http://svgjs.dev/svgjs" viewBox="0 0 800 800">
    <defs>
        <linearGradient x1="50%" y1="0%" x2="50%" y2="100%" id="ssscribble-grad">
        <stop stop-color="hsl(37, 99%, 67%)" stop-opacity="0.3" offset="0%"></stop>
        <stop stop-color="hsl(316, 73%, 52%)" stop-opacity="0.3" offset="100%"></stop>
        </linearGradient>
    </defs>
    <g fill="none" stroke-width="2.75" stroke="url(#ssscribble-grad)" stroke-linecap="round">
        <path d="M421.46 456.37C346.56 489.23 450.6 481.86 638.44 440.05 816.51 401.28 880.79 342.81 834.08 295.14 708.36 297.36 561.24 361.1 442.65 497.68 328.8 672.65 255.3 841.45 222.44 927.88 189.58 893.53 200.46 754.39 257.37 579.55 319.01 417.26 414.85 314.83 497.49 276.18 501.14 290.89 402 329.38 199.84 359.3 -12.07 396.91 -129.43 404.07 -54.53 371.21 165.21 338.36 381.62 268.6 473.59 174.04 416.24 87.18 271.29 -2.6 133.43 -60.39 24.78 -64.83 -6.41 2.73 15.26 140.93 64.58 291.68 118.65 417.51 151.51 451.89 184.39 365.48 192.92 210 200.55 59.11 235.8 -53.4 318.28 -82.29 469.98 -41.44 650.91 49.29 830.73 159.04 912.19 254.76 844.33 353.52 641.27 423.5 421.51 456.36Q421.46 456.37 421.46 456.37" opacity="0.19"></path>
        <path d="M407.46 374.72C331.42 405.65 415.56 398.81 584.64 362.8 763.59 333.15 854.97 292.65 846.62 269.72 762.17 293.58 641.42 373.97 533.67 514.49 422.02 680.8 346.57 835.45 315.64 913.88 284.71 884.88 301.24 760.49 359.29 598.46 413.44 438.66 485.92 325.12 529.84 267.48 497.64 256.99 373.46 274.44 171.84 291.7 -19.89 318.95 -116.57 322.68 -40.53 291.75 164.7 260.83 374.79 198.18 482.53 117.33 459.13 46.48 343.87 -19.24 215.79 -49.3 94.53 -32.2 35.05 48.51 29.03 185.63 46.81 324.99 81.87 436.86 112.8 465.89 143.73 387.48 167.6 245.36 203.41 101.72 263.01 -16.14 370.75 -63.73 532.54 -47.06 701.16 16.39 849.24 105.16 895.34 188.41 810.29 278.02 612.76 343.78 407.51 374.71Q407.46 374.72 407.46 374.72" opacity="0.29"></path>
        <path d="M393.46 295.03C317 324.03 382.39 320.29 531.23 293.77 705.02 275.71 815.64 254.67 840.7 255.58 797.74 298.29 709.27 391.33 619.66 532.42 519.87 688.6 448.59 829.14 419.59 899.88 390.6 875.85 406.64 765.78 456.18 617.49 495.54 463.26 538.77 342.97 543.71 270.15 480.66 237.05 339.28 233.66 144.24 237.02 -25.85 251.4 -102.99 249.71 -26.53 220.72 164.19 191.73 366.14 138.17 485.84 73.55 493.57 19.94 410.5 -21.92 299.84 -26.82 177.92 7.98 100.86 97.5 73.58 230.47 64.35 357.51 81.71 455.83 110.7 479.89 139.69 409.16 177.57 280.39 237.04 145.45 314.56 25.6 436.86 -36.69 596.78 -41.39 745.46 -4.3 859.3 61.98 872.85 130.29 774.42 207.06 584.25 266.03 393.51 295.02Q393.46 295.03 393.46 295.03" opacity="0.92"></path>
        <path d="M379.46 223.52C303.3 250.58 351.32 251.82 479.07 237.2 642.43 231.96 764.22 230.36 816.04 252.89 811.47 310.99 757.48 412.57 690.69 551.05 610.1 695.91 548.11 822.49 521.05 885.88 493.99 866.41 504.41 770.14 538.1 636.2 558 490.26 569.75 367.48 538.86 283.7 451.57 231.64 301.07 209.05 117.87 198.56 -29.71 198.96 -88.69 190.72 -12.53 163.66 163.77 136.59 355.91 93.27 483.71 45.98 518.8 9.58 468.42 -10.06 380.75 6.51 268.83 54.82 185.29 148.88 144.64 274.98 115.5 389.08 118.42 474.39 145.48 493.89 172.53 430.51 221.17 314.91 297.19 189.88 384.74 71.22 510.5 -1.65 657.9 -24.29 781.05 -11.35 860.15 32.47 844.92 84.61 736.98 146.13 555.83 196.45 379.51 223.51Q379.46 223.52 379.46 223.52" opacity="0.65"></path>
        <path d="M365.46 165.76C290.31 190.89 322.48 198.14 428.88 196.45 577.44 204.04 702.66 220.47 773.61 261.36 801.54 330.99 780.72 437 738.47 570.03 681.37 702.62 632.2 815.5 607.07 871.88 581.94 856.56 583.23 773.47 596.79 654.26 595.48 518.88 577.08 397.61 516.23 307.2 412.34 240.6 260.47 201.64 93.49 178.48 -31.33 165.21 -73.68 150.13 1.46 125 163.44 99.87 344.32 67.07 476.43 36.8 534.39 16.41 515.37 16.14 454.02 49.81 360.57 107.27 280.87 201.89 235.11 318.84 194.57 419.64 187.58 492.55 212.7 507.89 237.82 451.53 292.68 348.83 376.76 234.65 466.06 120.04 584.98 40.67 711.37 3.97 805.67 -3.98 851.37 18.8 811.85 54.76 698.17 100 527.5 140.62 365.51 165.75Q365.46 165.76 365.46 165.76" opacity="0.57"></path>
        <path d="M351.46 126.24C278.05 149.43 296.02 162.93 381.4 173.86 511.83 193.2 633.42 225.07 715.49 280.27 768.05 357.36 776.03 463.9 757.24 588.98 724.64 708.61 689.89 808.17 666.7 857.88 643.5 846.31 634.05 775.69 626.46 671.29 605.04 548.31 560.86 432.12 477.9 339.35 365.43 263.04 219.23 211.44 71.81 177.75 -30.57 152.36 -57.94 130.96 15.46 107.76 163.25 84.56 331.59 61.77 464.39 46.96 540.25 40.45 549.61 55.85 515.58 101.76 446.39 164.12 379.01 255.7 335.78 361.67 292.49 449.07 280.61 510.3 303.8 521.89 326.98 472.19 383.05 382.03 466.53 279.4 549.96 171.32 653.54 89.37 753.14 42.68 817.59 17.88 832.85 22.21 774.01 43.07 658.23 72.34 499.31 103.03 351.51 126.23Q351.46 126.24 351.46 126.24" opacity="0.67"></path>
        <path d="M337.46 108.04C266.49 129.3 272.06 148.51 337.3 170.57 447.36 199.64 559.32 243.5 644.76 308.51 713.03 388.98 743.18 492.47 744.38 607.53 734.25 713.77 713.58 800.47 692.32 843.88 671.05 835.64 651.21 776.7 624.49 686.94 586.44 577.7 523.11 469.66 426.97 378.51 313.66 297.43 179.15 237.45 53.51 196.06 -27.31 161.07 -41.5 134.55 29.46 113.29 163.23 92.02 317.97 78.03 448.08 76.17 536.56 80.71 570.01 107.51 562.12 160.72 520 224 470.9 309.49 436.32 403.14 397.9 477.31 385.91 527.64 407.17 535.88 428.42 492.47 480.92 414.38 556.18 323.72 627.61 224.25 709.89 143.31 779.89 90.71 815.67 53.57 804.79 42.9 731.9 50.67 617.4 65.47 471.28 86.77 337.51 108.03Q337.46 108.04 337.46 108.04" opacity="0.22"></path>
        <path d="M323.46 112.58C255.64 131.91 250.7 155.66 297.17 186.43 385.74 222.58 483.41 274.42 565.29 344.58 640.24 424.6 684.65 521.91 700.66 625.31 708.57 718.01 700 792.42 680.68 829.88 661.35 824.56 633.08 776.42 591.68 700.88 542.17 606.24 467.59 508.8 367.31 422.79 260.09 341.64 141.92 277.71 39.17 231.84 -21.46 190.42 -24.35 160.47 43.46 141.14 163.39 121.81 303.69 114.94 428.04 122.85 523.86 135.23 576.12 168.99 591.3 224.8 576.12 285.48 548.34 362.41 526.43 442.89 498.57 504.26 490.29 544.56 509.62 549.88 528.95 512.42 574.06 445.85 635.42 367.32 690.82 278.08 748.77 201.27 789.28 146.59 799.44 101.77 767.7 80.09 686.06 77.44 575.9 80.17 443.44 93.24 323.51 112.57Q323.46 112.58 323.46 112.58" opacity="0.82"></path>
        <path d="M309.46 139.51C236.41 174.3 343.99 253.44 481.61 386.67 621.71 540.84 668.04 721.16 633.25 815.88 598.45 775.8 489.12 623.53 303.42 470.02 120.2 320.41 -15.58 223.95 57.46 189.16 291.72 154.37 511.71 187.83 601.86 291.83 595.36 399.74 563.3 523.8 598.09 563.88 632.88 469.16 727.95 317.05 780.05 208.48 735.52 120.85 543.76 104.71 309.51 139.5Q309.46 139.51 309.46 139.51" opacity="0.84"></path>
        <path d="M295.46 186.73C219.42 217.65 289.46 302.17 398.4 432.77 528.67 570.89 587.01 723.46 556.09 801.88 525.16 772.88 410.81 649.65 240.01 518 90.54 380.07 -4.57 284.52 71.46 253.6 276.7 222.67 484.63 262.21 593.79 359.61 630.86 450.72 630.38 548.88 661.31 577.88 692.23 499.46 748.72 371.96 752.18 274.38 683.56 184.32 500.7 155.8 295.46 186.73Q295.46 186.73 295.46 186.73" opacity="0.55"></path>
        <path d="M281.46 250.56C205.3 277.62 242.41 360.55 320.37 480.68 428.6 599.39 486.09 724.49 459.03 787.88 431.96 768.4 325.48 672.51 181.78 564.47 68.34 444.57 9.3 356.5 85.46 329.44 261.79 302.38 451 341.45 568.22 425.87 637.17 498.45 664.15 572.4 691.21 591.88 718.27 528.49 740.29 425.33 706.81 342.08 625.06 257.42 457.79 223.49 281.46 250.56Q281.46 250.56 281.46 250.56" opacity="0.43"></path>
        <path d="M267.46 326.02C194.05 349.22 204.05 424.52 251.88 528.14 330.85 625.45 377.63 724.17 354.44 773.88 331.24 762.31 242.45 691.36 133.09 607.21 54.85 509.51 26.05 433.97 99.46 410.78 247.27 387.58 412.46 421.11 527.43 488.42 614.37 542.16 660.79 594.31 683.99 605.88 707.18 556.17 702.77 476.26 646.22 409.35 561.66 336.13 415.27 302.82 267.46 326.02Q267.46 326.02 267.46 326.02" opacity="0.15"></path>
        <path d="M253.46 407.25C186.24 445.9 294.31 647.73 255.66 759.88 217 707.23 46.24 529.93 113.46 491.28 376.57 452.62 601.9 567.23 640.56 619.88 679.21 507.73 516.57 368.59 253.46 407.25Q253.46 407.25 253.46 407.25" opacity="0.73"></path>
        <path d="M239.46 487.92C163.42 518.84 206.2 667.48 175.28 745.88 144.35 716.88 51.42 595.58 127.46 564.66 332.7 533.73 535.54 604.88 566.47 633.88 597.39 555.48 444.7 456.99 239.46 487.92Q239.46 487.92 239.46 487.92" opacity="0.91"></path>
        <path d="M225.46 561.74C152.05 584.93 146.74 682.18 123.55 731.88 100.35 720.31 68.05 648.42 141.46 625.23 289.27 602.03 447.95 636.31 471.15 647.88 494.34 598.18 373.27 538.54 225.46 561.74Q225.46 561.74 225.46 561.74" opacity="0.77"></path>
        <path d="M211.46 622.95C137.28 664.79 93.81 700.4 155.46 668.24 299.91 656.93 343.37 621.32 211.46 622.95Q211.46 622.95 211.46 622.95" opacity="0.90"></path>
    </g>
</svg>